<?xml version="1.0" encoding="utf-8"?>
<!-- Generator: Adobe Illustrator 27.7.0, SVG Export Plug-In . SVG Version: 6.00 Build 0)  -->
<svg version="1.1" id="Layer_1" xmlns="http://www.w3.org/2000/svg" xmlns:xlink="http://www.w3.org/1999/xlink" x="0px" y="0px"
	 viewBox="0 0 512 512" style="enable-background:new 0 0 512 512;" xml:space="preserve">
<path fill="white" d="M479.6,399.7l-81.1-81.1l-62.4-25.8C356.9,263.3,368,228.1,368,192c0-97.1-79-176-176-176S16,94.9,16,192s78.9,176,176,176
	c36.4,0,71.9-11.3,101.6-32.4l25.7,62.2l81.1,81.1c21.9,21.9,57.3,21.9,79.2,0C501.5,457,501.5,421.6,479.6,399.7L479.6,399.7
	L479.6,399.7z M48,192c0-79.4,64.6-144,144-144s144,64.6,144,144s-64.6,144-144,144S48,271.4,48,192z M457,456.3
	c-9.4,9.4-24.6,9.4-33.9,0l-76.6-76.6l-23.9-57.8l57.8,23.9l76.6,76.6C466.3,431.7,466.3,446.9,457,456.3z"/>
<circle fill="white" cx="126" cy="192" r="24.8"/>
<circle fill="white" cx="189" cy="192" r="24.8"/>
<circle fill="white" cx="252" cy="192" r="24.8"/>
</svg>
