<svg xmlns="http://www.w3.org/2000/svg" viewBox="0 0 512 512">
<path fill="white" class="ci-primary" d="M479.6,399.72l-81.08-81.08l-62.37-25.77C356.91,263.33,368.04,228.1,368,192c0-97.05-78.95-176-176-176
	S16,94.95,16,192s78.95,176,176,176c36.42,0.04,71.94-11.28,101.62-32.38l25.7,62.2l81.08,81.09c21.87,21.87,57.33,21.87,79.2,0
	C501.47,457.04,501.47,421.59,479.6,399.72L479.6,399.72L479.6,399.72z M48,192c0-79.4,64.6-144,144-144s144,64.6,144,144
	s-64.6,144-144,144S48,271.4,48,192z M456.97,456.28c-9.38,9.36-24.56,9.36-33.94,0l-76.57-76.57l-23.89-57.83l57.84,23.89
	l76.57,76.57C466.33,431.72,466.33,446.91,456.97,456.28z"/>
<rect fill="white" class="ci-primary" x="117" y="179.5" width="150" height="25"/>
</svg>
