<?xml version="1.0" encoding="utf-8"?>
<!-- Generator: Adobe Illustrator 15.0.0, SVG Export Plug-In . SVG Version: 6.00 Build 0)  -->
<!DOCTYPE svg PUBLIC "-//W3C//DTD SVG 1.1//EN" "http://www.w3.org/Graphics/SVG/1.1/DTD/svg11.dtd">
<svg version="1.1" id="Layer_1" xmlns="http://www.w3.org/2000/svg" xmlns:xlink="http://www.w3.org/1999/xlink" x="0px" y="0px"
	 width="283.465px" height="283.46px" viewBox="0 0 283.465 283.46" enable-background="new 0 0 283.465 283.46"
	 xml:space="preserve">
<rect fill="#FFFFFF" stroke="#231F20" stroke-width="0.25" stroke-miterlimit="10" width="283.465" height="283.465"/>
<path fill="#00ADEE" stroke="#231F20" stroke-width="19" stroke-miterlimit="10" d="M266.457,130.396h-79.37
	c-3.775-16.147-16.567-30.047-34.017-34.021v-79.37h113.387V130.396z"/>
<path fill="#00ADEE" stroke="#231F20" stroke-width="19" stroke-miterlimit="10" d="M17.008,153.068h79.37
	c3.775,16.146,16.57,30.044,34.018,34.019l-0.002,79.372H17.008V153.068z"/>
<path fill="#FFFF00" stroke="#231F20" stroke-width="19" stroke-miterlimit="10" d="M153.068,266.457v-79.37
	c16.146-3.775,30.044-16.567,34.019-34.016h79.372v113.386H153.068z"/>
<ellipse fill="#ABABAB" stroke="#424242" stroke-width="8" stroke-miterlimit="10" cx="141.734" cy="141.732" rx="26.51" ry="26.041"/>
<path fill="#FFFF00" stroke="#231F20" stroke-width="19" stroke-miterlimit="10" d="M130.396,17.007v79.371
	c-16.146,3.775-30.044,16.57-34.018,34.019l-79.372-0.003V17.007H130.396z"/>
<g>
	<path fill="#58595B" d="M85.984,77.025l11.211,3.492c-1.719,6.139-4.577,10.699-8.574,13.679c-3.998,2.98-9.069,4.47-15.215,4.47
		c-7.604,0-13.854-2.552-18.75-7.655c-4.896-5.104-7.344-12.08-7.344-20.931c0-9.362,2.461-16.633,7.383-21.813
		s11.393-7.77,19.414-7.77c7.005,0,12.695,2.034,17.07,6.101c2.604,2.405,4.557,5.858,5.859,10.359l-11.445,2.686
		c-0.678-2.916-2.09-5.218-4.238-6.906c-2.148-1.688-4.76-2.533-7.832-2.533c-4.245,0-7.689,1.497-10.332,4.489
		c-2.644,2.993-3.965,7.841-3.965,14.542c0,7.112,1.302,12.176,3.906,15.194c2.604,3.019,5.989,4.528,10.156,4.528
		c3.072,0,5.716-0.959,7.93-2.878C83.432,84.162,85.021,81.144,85.984,77.025z"/>
</g>
<g>
	<path fill="#58595B" d="M207.355,100.491l-20.469-56.25h12.539l14.492,41.631l14.023-41.631h12.266l-20.508,56.25H207.355z"/>
</g>
<g>
	<path fill="#58595B" d="M49.431,183.458h11.563v30.466c0,4.835,0.143,7.968,0.43,9.4c0.494,2.302,1.673,4.15,3.535,5.545
		c1.861,1.394,4.407,2.091,7.637,2.091c3.281,0,5.755-0.658,7.422-1.977c1.666-1.316,2.669-2.935,3.008-4.854
		c0.338-1.918,0.508-5.103,0.508-9.554v-31.118h11.563v29.545c0,6.753-0.313,11.524-0.938,14.312
		c-0.625,2.789-1.777,5.142-3.457,7.061c-1.68,1.918-3.926,3.447-6.738,4.585s-6.484,1.707-11.016,1.707
		c-5.469,0-9.616-0.62-12.441-1.86c-2.826-1.241-5.059-2.853-6.699-4.835c-1.641-1.981-2.722-4.061-3.242-6.235
		c-0.756-3.223-1.133-7.98-1.133-14.273V183.458z"/>
</g>
<g>
	<path fill="#58595B" d="M188.816,221.406l11.25-1.075c0.677,3.71,2.051,6.434,4.121,8.173c2.07,1.74,4.863,2.609,8.379,2.609
		c3.724,0,6.529-0.773,8.418-2.321c1.888-1.548,2.832-3.357,2.832-5.43c0-1.329-0.397-2.461-1.191-3.396
		c-0.795-0.934-2.182-1.746-4.16-2.437c-1.354-0.46-4.44-1.278-9.258-2.455c-6.198-1.51-10.547-3.363-13.047-5.563
		c-3.516-3.095-5.273-6.868-5.273-11.319c0-2.864,0.826-5.545,2.48-8.038c1.653-2.494,4.036-4.394,7.148-5.698
		c3.111-1.305,6.868-1.957,11.27-1.957c7.188,0,12.598,1.548,16.23,4.643c3.633,3.096,5.54,7.227,5.723,12.394l-11.563,0.499
		c-0.495-2.891-1.557-4.969-3.184-6.235c-1.628-1.266-4.069-1.899-7.324-1.899c-3.359,0-5.99,0.679-7.891,2.034
		c-1.225,0.87-1.836,2.033-1.836,3.491c0,1.33,0.572,2.469,1.719,3.415c1.458,1.202,5,2.456,10.625,3.76
		c5.625,1.305,9.785,2.654,12.48,4.049c2.695,1.394,4.805,3.299,6.328,5.717c1.523,2.417,2.285,5.404,2.285,8.959
		c0,3.223-0.912,6.241-2.734,9.056c-1.823,2.813-4.401,4.905-7.734,6.273c-3.334,1.367-7.487,2.053-12.461,2.053
		c-7.24,0-12.8-1.644-16.68-4.931C191.889,232.488,189.571,227.698,188.816,221.406z"/>
</g>
</svg>
